<svg width="1500" height="1000" viewBox="0 0 1500 1000" fill="none" xmlns="http://www.w3.org/2000/svg">
<g clip-path="url(#clip0_12_147)">
<path d="M1500 0H0V2000H1500V0Z" fill="url(#paint0_linear_12_147)"/>
<path d="M124.008 440H133.413L117.282 400.1H109.131L93.456 440H102.633L105.369 432.476H121.215L124.008 440ZM113.292 410.645L118.536 424.952H108.048L113.292 410.645ZM184.925 408.536C180.992 408.536 177.515 410.474 175.406 413.438C173.582 410.36 170.39 408.536 166.457 408.536C162.809 408.536 159.446 410.303 157.28 413.039L155.741 409.22H149.927V440H158.249V423.356C158.249 418.568 160.472 415.832 164.234 415.832C167.198 415.832 168.794 417.998 168.794 422.102V440H176.888V423.356C176.888 418.568 179.111 415.832 182.816 415.832C185.837 415.832 187.433 417.998 187.433 422.102V440H195.755V420.734C195.755 413.495 191.309 408.536 184.925 408.536ZM228.5 409.22L227.645 412.127C224.966 409.79 221.489 408.365 217.499 408.365C208.265 408.365 201.368 415.319 201.368 424.61C201.368 433.901 208.265 440.912 217.499 440.912C221.432 440.912 224.852 439.544 227.474 437.207L228.215 440H234.713V409.22H228.5ZM218.183 433.046C213.338 433.046 209.804 429.398 209.804 424.61C209.804 419.765 213.338 416.174 218.183 416.174C223.028 416.174 226.562 419.765 226.562 424.61C226.562 429.455 223.028 433.046 218.183 433.046ZM253.661 440.912C261.47 440.912 266.6 436.808 266.6 430.538C266.6 423.014 260.159 421.988 255.143 421.076C251.951 420.506 249.329 419.993 249.329 417.941C249.329 416.174 250.868 415.034 253.433 415.034C256.34 415.034 258.05 416.231 258.107 418.682H266.03C265.973 412.526 261.071 408.365 253.661 408.365C246.251 408.365 241.292 412.412 241.292 418.226C241.292 425.465 247.562 426.776 252.464 427.631C255.713 428.144 258.392 428.771 258.392 430.88C258.392 432.932 256.283 434.015 254.003 434.015C251.039 434.015 248.93 432.647 248.873 429.911H240.779C240.779 436.466 245.966 440.912 253.661 440.912ZM283.608 440.912C291.417 440.912 296.547 436.808 296.547 430.538C296.547 423.014 290.106 421.988 285.09 421.076C281.898 420.506 279.276 419.993 279.276 417.941C279.276 416.174 280.815 415.034 283.38 415.034C286.287 415.034 287.997 416.231 288.054 418.682H295.977C295.92 412.526 291.018 408.365 283.608 408.365C276.198 408.365 271.239 412.412 271.239 418.226C271.239 425.465 277.509 426.776 282.411 427.631C285.66 428.144 288.339 428.771 288.339 430.88C288.339 432.932 286.23 434.015 283.95 434.015C280.986 434.015 278.877 432.647 278.82 429.911H270.726C270.726 436.466 275.913 440.912 283.608 440.912ZM302.669 405.116H310.934V397.421H302.669V405.116ZM302.669 440H310.991V409.22H302.669V440ZM339.156 409.22L331.746 429.854L324.222 409.22H315.33L327.87 440H335.565L347.763 409.22H339.156ZM381.02 424.553C381.02 415.661 374.522 408.365 365.06 408.365C355.94 408.365 349.1 415.376 349.1 424.61C349.1 433.844 355.997 440.912 365.06 440.912C372.242 440.912 378.113 436.637 380.336 429.911H371.615C370.361 432.134 367.967 433.502 365.06 433.502C361.013 433.502 358.277 431.165 357.536 426.947H380.849C380.963 426.149 381.02 425.351 381.02 424.553ZM365.06 415.49C368.822 415.49 371.501 417.542 372.698 421.304H357.764C358.733 417.656 361.355 415.49 365.06 415.49ZM400.582 440H408.904V398.162H400.582V440ZM416.891 405.116H425.156V397.421H416.891V405.116ZM416.891 440H425.213V409.22H416.891V440ZM449.959 408.365C446.767 408.365 443.86 409.277 441.523 410.93V398.162H433.201V440.057H439.3L440.326 437.435C442.891 439.658 446.197 440.912 449.959 440.912C459.307 440.912 466.147 433.958 466.147 424.667C466.147 415.319 459.307 408.365 449.959 408.365ZM449.275 433.046C444.43 433.046 440.896 429.398 440.896 424.61C440.896 419.822 444.43 416.174 449.275 416.174C454.12 416.174 457.654 419.822 457.654 424.61C457.654 429.398 454.12 433.046 449.275 433.046ZM487.842 409.049C483.852 409.049 481.116 410.303 478.893 413.039L477.411 409.22H472.11V440H480.432V424.04C480.432 419.024 482.256 416.915 486.93 416.915H490.578V409.049H487.842ZM519.734 409.22L518.879 412.127C516.2 409.79 512.723 408.365 508.733 408.365C499.499 408.365 492.602 415.319 492.602 424.61C492.602 433.901 499.499 440.912 508.733 440.912C512.666 440.912 516.086 439.544 518.708 437.207L519.449 440H525.947V409.22H519.734ZM509.417 433.046C504.572 433.046 501.038 429.398 501.038 424.61C501.038 419.765 504.572 416.174 509.417 416.174C514.262 416.174 517.796 419.765 517.796 424.61C517.796 429.455 514.262 433.046 509.417 433.046ZM549.741 409.049C545.751 409.049 543.015 410.303 540.792 413.039L539.31 409.22H534.009V440H542.331V424.04C542.331 419.024 544.155 416.915 548.829 416.915H552.477V409.049H549.741ZM578.481 409.22L570.786 428.201L562.578 409.22H553.515L566.568 437.663L566.454 437.891C564.573 442.565 563.547 443.648 559.5 443.648H556.65V451.115H560.07C566.967 451.115 570.216 447.98 573.921 439.601L587.316 409.22H578.481ZM618.292 440.912C627.811 440.912 634.936 433.901 634.936 424.61C634.936 415.319 627.811 408.365 618.292 408.365C608.773 408.365 601.648 415.319 601.648 424.61C601.648 433.901 608.773 440.912 618.292 440.912ZM618.292 433.046C613.504 433.046 610.084 429.626 610.084 424.61C610.084 419.651 613.504 416.174 618.292 416.174C623.08 416.174 626.5 419.651 626.5 424.61C626.5 429.626 623.08 433.046 618.292 433.046ZM659.193 409.676H651.27V407.054C651.27 404.888 652.41 403.748 654.633 403.748H659.136V397.193H652.98C646.482 397.193 643.176 400.955 643.176 406.883V409.676H637.818V416.516H643.119V440H651.441V416.516H659.193V409.676ZM115.8 482.676H107.877V480.054C107.877 477.888 109.017 476.748 111.24 476.748H115.743V470.193H109.587C103.089 470.193 99.783 473.955 99.783 479.883V482.676H94.425V489.516H99.726V513H108.048V489.516H115.8V482.676ZM136.379 482.049C132.389 482.049 129.653 483.303 127.43 486.039L125.948 482.22H120.647V513H128.969V497.04C128.969 492.024 130.793 489.915 135.467 489.915H139.115V482.049H136.379ZM173.059 497.553C173.059 488.661 166.561 481.365 157.099 481.365C147.979 481.365 141.139 488.376 141.139 497.61C141.139 506.844 148.036 513.912 157.099 513.912C164.281 513.912 170.152 509.637 172.375 502.911H163.654C162.4 505.134 160.006 506.502 157.099 506.502C153.052 506.502 150.316 504.165 149.575 499.947H172.888C173.002 499.149 173.059 498.351 173.059 497.553ZM157.099 488.49C160.861 488.49 163.54 490.542 164.737 494.304H149.803C150.772 490.656 153.394 488.49 157.099 488.49ZM208.851 497.553C208.851 488.661 202.353 481.365 192.891 481.365C183.771 481.365 176.931 488.376 176.931 497.61C176.931 506.844 183.828 513.912 192.891 513.912C200.073 513.912 205.944 509.637 208.167 502.911H199.446C198.192 505.134 195.798 506.502 192.891 506.502C188.844 506.502 186.108 504.165 185.367 499.947H208.68C208.794 499.149 208.851 498.351 208.851 497.553ZM192.891 488.49C196.653 488.49 199.332 490.542 200.529 494.304H185.595C186.564 490.656 189.186 488.49 192.891 488.49ZM244.031 489.117L251.84 476.634V475.095H227.672V482.391H240.668L233.771 493.791V495.33H239.3C242.777 495.33 245.057 497.382 245.057 500.574C245.057 503.823 242.891 506.103 239.87 506.103C236.963 506.103 235.025 504.108 234.911 501.087H226.76C226.988 508.554 232.346 513.684 239.87 513.684C247.565 513.684 253.265 508.269 253.265 500.859C253.265 494.931 249.617 490.428 244.031 489.117ZM275.425 473.1H260.377V513H275.425C287.167 513 295.66 504.621 295.66 493.05C295.66 481.479 287.167 473.1 275.425 473.1ZM275.254 505.02H268.984V481.137H275.254C282.094 481.137 286.825 485.982 286.825 493.05C286.825 500.004 282.094 505.02 275.254 505.02Z" fill="#1D1C24"/>
<path d="M326.581 513.912C334.39 513.912 339.52 509.808 339.52 503.538C339.52 496.014 333.079 494.988 328.063 494.076C324.871 493.506 322.249 492.993 322.249 490.941C322.249 489.174 323.788 488.034 326.353 488.034C329.26 488.034 330.97 489.231 331.027 491.682H338.95C338.893 485.526 333.991 481.365 326.581 481.365C319.171 481.365 314.212 485.412 314.212 491.226C314.212 498.465 320.482 499.776 325.384 500.631C328.633 501.144 331.312 501.771 331.312 503.88C331.312 505.932 329.203 507.015 326.923 507.015C323.959 507.015 321.85 505.647 321.793 502.911H313.699C313.699 509.466 318.886 513.912 326.581 513.912ZM363.254 481.536C359.549 481.536 356.3 482.904 353.963 485.127V471.162H345.641V513H353.963V496.869C353.963 491.853 356.699 488.832 360.86 488.832C364.565 488.832 366.218 491.112 366.218 495.729V513H374.54V494.304C374.54 486.495 370.208 481.536 363.254 481.536ZM407.237 482.22L406.382 485.127C403.703 482.79 400.226 481.365 396.236 481.365C387.002 481.365 380.105 488.319 380.105 497.61C380.105 506.901 387.002 513.912 396.236 513.912C400.169 513.912 403.589 512.544 406.211 510.207L406.952 513H413.45V482.22H407.237ZM396.92 506.046C392.075 506.046 388.541 502.398 388.541 497.61C388.541 492.765 392.075 489.174 396.92 489.174C401.765 489.174 405.299 492.765 405.299 497.61C405.299 502.455 401.765 506.046 396.92 506.046ZM438.269 481.365C434.45 481.365 431.03 482.733 428.408 485.07L426.983 482.22H421.511V524.115H429.833V511.347C432.17 513 435.077 513.969 438.269 513.969C447.56 513.969 454.4 506.958 454.4 497.61C454.4 488.319 447.56 481.365 438.269 481.365ZM437.585 506.046C432.74 506.046 429.206 502.455 429.206 497.61C429.206 492.822 432.74 489.174 437.585 489.174C442.43 489.174 445.964 492.822 445.964 497.61C445.964 502.455 442.43 506.046 437.585 506.046ZM490.233 497.553C490.233 488.661 483.735 481.365 474.273 481.365C465.153 481.365 458.313 488.376 458.313 497.61C458.313 506.844 465.21 513.912 474.273 513.912C481.455 513.912 487.326 509.637 489.549 502.911H480.828C479.574 505.134 477.18 506.502 474.273 506.502C470.226 506.502 467.49 504.165 466.749 499.947H490.062C490.176 499.149 490.233 498.351 490.233 497.553ZM474.273 488.49C478.035 488.49 480.714 490.542 481.911 494.304H466.977C467.946 490.656 470.568 488.49 474.273 488.49ZM507.044 513.912C514.853 513.912 519.983 509.808 519.983 503.538C519.983 496.014 513.542 494.988 508.526 494.076C505.334 493.506 502.712 492.993 502.712 490.941C502.712 489.174 504.251 488.034 506.816 488.034C509.723 488.034 511.433 489.231 511.49 491.682H519.413C519.356 485.526 514.454 481.365 507.044 481.365C499.634 481.365 494.675 485.412 494.675 491.226C494.675 498.465 500.945 499.776 505.847 500.631C509.096 501.144 511.775 501.771 511.775 503.88C511.775 505.932 509.666 507.015 507.386 507.015C504.422 507.015 502.313 505.647 502.256 502.911H494.162C494.162 509.466 499.349 513.912 507.044 513.912Z" fill="#8468F5"/>
<path d="M96.66 563.36V551H94.9V565H102.8V563.36H96.66ZM109.346 565.24C112.606 565.24 115.066 562.84 115.066 559.6C115.066 556.38 112.606 553.98 109.346 553.98C106.066 553.98 103.606 556.36 103.606 559.6C103.606 562.84 106.066 565.24 109.346 565.24ZM109.346 563.6C107.026 563.6 105.346 561.92 105.346 559.6C105.346 557.3 107.026 555.62 109.346 555.62C111.646 555.62 113.326 557.3 113.326 559.62C113.326 561.92 111.646 563.6 109.346 563.6ZM122.589 554.16C121.029 554.16 119.909 554.74 119.129 555.86L118.869 554.2H117.649V565H119.349V559.14C119.349 557.04 120.469 555.76 122.449 555.76H123.549V554.16H122.589ZM135.132 559.66C135.132 556.5 132.972 553.98 129.692 553.98C126.552 553.98 124.192 556.4 124.192 559.6C124.192 562.82 126.552 565.24 129.692 565.24C132.032 565.24 133.932 563.94 134.852 561.72H133.052C132.392 562.88 131.192 563.58 129.692 563.58C127.652 563.58 126.152 562.26 125.892 560.26H135.092C135.112 560.06 135.132 559.86 135.132 559.66ZM129.692 555.58C131.612 555.58 133.072 556.78 133.432 558.7H125.932C126.272 556.82 127.732 555.58 129.692 555.58ZM149.609 553.98C148.129 553.98 146.749 554.76 145.949 556.02C145.349 554.76 144.169 553.98 142.629 553.98C141.269 553.98 140.009 554.62 139.169 555.7L138.889 554.2H137.669V565H139.369V559.02C139.369 557.04 140.669 555.52 142.249 555.52C143.809 555.52 144.709 556.68 144.709 558.64V565H146.389V559.02C146.389 557.04 147.689 555.52 149.269 555.52C150.809 555.52 151.709 556.68 151.709 558.64V565H153.409V558.1C153.409 555.68 151.889 553.98 149.609 553.98ZM161.847 552.34H163.687V550.4H161.847V552.34ZM161.907 565H163.607V554.2H161.907V565ZM172.764 553.98C171.024 553.98 169.544 554.68 168.544 555.86L168.204 554.2H167.024V568.86H168.724V563.56C169.724 564.62 171.144 565.24 172.764 565.24C175.984 565.24 178.304 562.82 178.304 559.6C178.304 556.38 175.984 553.98 172.764 553.98ZM172.644 563.6C170.344 563.6 168.664 561.88 168.664 559.6C168.664 557.34 170.344 555.62 172.644 555.62C174.924 555.62 176.604 557.32 176.604 559.6C176.604 561.9 174.924 563.6 172.644 563.6ZM184.311 565.24C186.871 565.24 188.591 563.94 188.591 561.92C188.591 559.28 186.391 558.92 184.531 558.62C183.091 558.4 181.851 558.18 181.851 557.04C181.851 556.1 182.771 555.5 184.231 555.5C185.751 555.5 186.671 556.14 186.731 557.32H188.331C188.271 555.28 186.711 553.98 184.271 553.98C181.831 553.98 180.191 555.24 180.191 557.1C180.191 559.54 182.271 559.92 184.111 560.24C185.571 560.48 186.911 560.72 186.911 562C186.911 563.04 185.851 563.68 184.371 563.68C182.851 563.68 181.751 562.98 181.671 561.7H179.991C180.091 563.88 181.751 565.24 184.311 565.24ZM195.745 565.24C198.685 565.24 200.545 563.36 200.545 560.46V554.2H198.845V560.18C198.845 562.28 197.685 563.6 195.745 563.6C193.845 563.6 192.665 562.3 192.665 560.18V554.2H190.965V560.46C190.965 563.36 192.845 565.24 195.745 565.24ZM215.722 553.98C214.242 553.98 212.862 554.76 212.062 556.02C211.462 554.76 210.282 553.98 208.742 553.98C207.382 553.98 206.122 554.62 205.282 555.7L205.002 554.2H203.782V565H205.482V559.02C205.482 557.04 206.782 555.52 208.362 555.52C209.922 555.52 210.822 556.68 210.822 558.64V565H212.502V559.02C212.502 557.04 213.802 555.52 215.382 555.52C216.922 555.52 217.822 556.68 217.822 558.64V565H219.522V558.1C219.522 555.68 218.002 553.98 215.722 553.98ZM227.96 552.34H229.8V550.4H227.96V552.34ZM228.02 565H229.72V554.2H228.02V565ZM236.558 565.24C239.118 565.24 240.838 563.94 240.838 561.92C240.838 559.28 238.638 558.92 236.778 558.62C235.338 558.4 234.098 558.18 234.098 557.04C234.098 556.1 235.018 555.5 236.478 555.5C237.998 555.5 238.918 556.14 238.978 557.32H240.578C240.518 555.28 238.958 553.98 236.518 553.98C234.077 553.98 232.438 555.24 232.438 557.1C232.438 559.54 234.518 559.92 236.358 560.24C237.818 560.48 239.158 560.72 239.158 562C239.158 563.04 238.098 563.68 236.618 563.68C235.098 563.68 233.998 562.98 233.918 561.7H232.238C232.338 563.88 233.998 565.24 236.558 565.24ZM254.366 553.98C252.626 553.98 251.146 554.68 250.146 555.86L249.806 554.2H248.626V568.86H250.326V563.56C251.326 564.62 252.746 565.24 254.366 565.24C257.586 565.24 259.906 562.82 259.906 559.6C259.906 556.38 257.586 553.98 254.366 553.98ZM254.246 563.6C251.946 563.6 250.266 561.88 250.266 559.6C250.266 557.34 251.946 555.62 254.246 555.62C256.526 555.62 258.206 557.32 258.206 559.6C258.206 561.9 256.526 563.6 254.246 563.6ZM262.493 565H264.193V550.36H262.493V565ZM276.83 554.2L276.61 555.86C275.61 554.68 274.11 553.98 272.35 553.98C269.15 553.98 266.75 556.38 266.75 559.62C266.75 562.82 269.15 565.24 272.35 565.24C274.11 565.24 275.59 564.54 276.59 563.38L276.77 565H278.17V554.2H276.83ZM272.47 563.6C270.19 563.6 268.49 561.88 268.49 559.6C268.49 557.34 270.19 555.62 272.47 555.62C274.77 555.62 276.43 557.32 276.43 559.6C276.43 561.9 274.77 563.6 272.47 563.6ZM286.355 565.24C288.915 565.24 290.975 563.7 291.635 561.32H289.915C289.255 562.76 287.935 563.6 286.355 563.6C284.155 563.6 282.475 561.86 282.475 559.6C282.475 557.36 284.135 555.62 286.355 555.62C287.955 555.62 289.295 556.46 289.915 557.86H291.615C290.955 555.5 288.935 553.98 286.355 553.98C283.155 553.98 280.735 556.38 280.735 559.6C280.735 562.82 283.155 565.24 286.355 565.24ZM304.097 559.66C304.097 556.5 301.937 553.98 298.657 553.98C295.517 553.98 293.157 556.4 293.157 559.6C293.157 562.82 295.517 565.24 298.657 565.24C300.997 565.24 302.897 563.94 303.817 561.72H302.017C301.357 562.88 300.157 563.58 298.657 563.58C296.617 563.58 295.117 562.26 294.857 560.26H304.057C304.077 560.06 304.097 559.86 304.097 559.66ZM298.657 555.58C300.577 555.58 302.037 556.78 302.397 558.7H294.897C295.237 556.82 296.697 555.58 298.657 555.58ZM312.034 553.98C310.474 553.98 309.174 554.62 308.334 555.68V550.36H306.634V565H308.334V559.12C308.334 557.1 309.754 555.52 311.614 555.52C313.474 555.52 314.514 556.76 314.514 558.94V565H316.214V558.54C316.214 555.74 314.614 553.98 312.034 553.98ZM324.346 565.24C327.606 565.24 330.066 562.84 330.066 559.6C330.066 556.38 327.606 553.98 324.346 553.98C321.066 553.98 318.606 556.36 318.606 559.6C318.606 562.84 321.066 565.24 324.346 565.24ZM324.346 563.6C322.026 563.6 320.346 561.92 320.346 559.6C320.346 557.3 322.026 555.62 324.346 555.62C326.646 555.62 328.326 557.3 328.326 559.62C328.326 561.92 326.646 563.6 324.346 563.6ZM332.649 565H334.349V550.36H332.649V565ZM346.486 550.36V555.58C345.486 554.58 344.086 553.98 342.486 553.98C339.246 553.98 336.906 556.38 336.906 559.62C336.906 562.82 339.246 565.24 342.486 565.24C344.186 565.24 345.646 564.58 346.646 563.48L346.866 565.02H348.186V550.36H346.486ZM342.606 563.6C340.326 563.6 338.646 561.9 338.646 559.62C338.646 557.32 340.326 555.62 342.606 555.62C344.906 555.62 346.586 557.34 346.586 559.62C346.586 561.88 344.906 563.6 342.606 563.6ZM361.714 559.66C361.714 556.5 359.554 553.98 356.274 553.98C353.134 553.98 350.774 556.4 350.774 559.6C350.774 562.82 353.134 565.24 356.274 565.24C358.614 565.24 360.514 563.94 361.434 561.72H359.634C358.974 562.88 357.774 563.58 356.274 563.58C354.234 563.58 352.734 562.26 352.474 560.26H361.674C361.694 560.06 361.714 559.86 361.714 559.66ZM356.274 555.58C358.194 555.58 359.654 556.78 360.014 558.7H352.514C352.854 556.82 354.314 555.58 356.274 555.58ZM369.191 554.16C367.631 554.16 366.511 554.74 365.731 555.86L365.471 554.2H364.251V565H365.951V559.14C365.951 557.04 367.071 555.76 369.051 555.76H370.151V554.16H369.191ZM380.782 563.44C379.302 563.44 378.502 562.64 378.502 561.18V555.74H381.902V554.2H378.502V551.92H378.242L374.902 555.44V555.74H376.802V561.24C376.802 563.58 378.242 565 380.562 565H381.962V563.44H380.782ZM394.195 559.66C394.195 556.5 392.035 553.98 388.755 553.98C385.615 553.98 383.255 556.4 383.255 559.6C383.255 562.82 385.615 565.24 388.755 565.24C391.095 565.24 392.995 563.94 393.915 561.72H392.115C391.455 562.88 390.255 563.58 388.755 563.58C386.715 563.58 385.215 562.26 384.955 560.26H394.155C394.175 560.06 394.195 559.86 394.195 559.66ZM388.755 555.58C390.675 555.58 392.135 556.78 392.495 558.7H384.995C385.335 556.82 386.795 555.58 388.755 555.58ZM404.819 565L400.839 559.32L404.519 554.2H402.639L399.839 558.2L397.079 554.2H395.179L398.799 559.4L394.839 565H396.719L399.819 560.52L402.919 565H404.819ZM411.133 563.44C409.653 563.44 408.853 562.64 408.853 561.18V555.74H412.253V554.2H408.853V551.92H408.593L405.253 555.44V555.74H407.153V561.24C407.153 563.58 408.593 565 410.913 565H412.313V563.44H411.133ZM424.577 565.24C427.137 565.24 429.197 563.7 429.857 561.32H428.137C427.477 562.76 426.157 563.6 424.577 563.6C422.377 563.6 420.697 561.86 420.697 559.6C420.697 557.36 422.357 555.62 424.577 555.62C426.177 555.62 427.517 556.46 428.137 557.86H429.837C429.177 555.5 427.157 553.98 424.577 553.98C421.377 553.98 418.957 556.38 418.957 559.6C418.957 562.82 421.377 565.24 424.577 565.24ZM437.1 565.24C440.36 565.24 442.82 562.84 442.82 559.6C442.82 556.38 440.36 553.98 437.1 553.98C433.82 553.98 431.36 556.36 431.36 559.6C431.36 562.84 433.82 565.24 437.1 565.24ZM437.1 563.6C434.78 563.6 433.1 561.92 433.1 559.6C433.1 557.3 434.78 555.62 437.1 555.62C439.4 555.62 441.08 557.3 441.08 559.62C441.08 561.92 439.4 563.6 437.1 563.6ZM457.343 553.98C455.863 553.98 454.483 554.76 453.683 556.02C453.083 554.76 451.903 553.98 450.363 553.98C449.003 553.98 447.743 554.62 446.903 555.7L446.623 554.2H445.403V565H447.103V559.02C447.103 557.04 448.403 555.52 449.983 555.52C451.543 555.52 452.443 556.68 452.443 558.64V565H454.123V559.02C454.123 557.04 455.423 555.52 457.003 555.52C458.543 555.52 459.443 556.68 459.443 558.64V565H461.143V558.1C461.143 555.68 459.623 553.98 457.343 553.98ZM476.347 553.98C474.867 553.98 473.487 554.76 472.687 556.02C472.087 554.76 470.907 553.98 469.367 553.98C468.007 553.98 466.747 554.62 465.907 555.7L465.627 554.2H464.407V565H466.107V559.02C466.107 557.04 467.407 555.52 468.987 555.52C470.547 555.52 471.447 556.68 471.447 558.64V565H473.127V559.02C473.127 557.04 474.427 555.52 476.007 555.52C477.547 555.52 478.447 556.68 478.447 558.64V565H480.147V558.1C480.147 555.68 478.627 553.98 476.347 553.98ZM488.291 565.24C491.551 565.24 494.011 562.84 494.011 559.6C494.011 556.38 491.551 553.98 488.291 553.98C485.011 553.98 482.551 556.36 482.551 559.6C482.551 562.84 485.011 565.24 488.291 565.24ZM488.291 563.6C485.971 563.6 484.291 561.92 484.291 559.6C484.291 557.3 485.971 555.62 488.291 555.62C490.591 555.62 492.271 557.3 492.271 559.62C492.271 561.92 490.591 563.6 488.291 563.6ZM501.995 553.98C500.335 553.98 498.955 554.7 498.135 555.9L497.815 554.2H496.595V565H498.295V559.12C498.295 557.1 499.715 555.52 501.575 555.52C503.435 555.52 504.475 556.76 504.475 558.94V565H506.175V558.54C506.175 555.9 504.575 553.98 501.995 553.98ZM509.427 565H511.127V550.36H509.427V565ZM522.444 554.2L518.824 562.38L514.984 554.2H513.144L517.944 564.28L517.564 565.08C516.684 566.88 516.184 567.32 514.724 567.32H513.864V568.86H514.884C516.924 568.86 517.944 568.02 519.104 565.46L524.264 554.2H522.444ZM535.57 565.24C538.51 565.24 540.37 563.36 540.37 560.46V554.2H538.67V560.18C538.67 562.28 537.51 563.6 535.57 563.6C533.67 563.6 532.49 562.3 532.49 560.18V554.2H530.79V560.46C530.79 563.36 532.67 565.24 535.57 565.24ZM547.026 565.24C549.586 565.24 551.306 563.94 551.306 561.92C551.306 559.28 549.106 558.92 547.246 558.62C545.806 558.4 544.566 558.18 544.566 557.04C544.566 556.1 545.486 555.5 546.946 555.5C548.466 555.5 549.386 556.14 549.446 557.32H551.046C550.986 555.28 549.426 553.98 546.986 553.98C544.546 553.98 542.906 555.24 542.906 557.1C542.906 559.54 544.986 559.92 546.826 560.24C548.286 560.48 549.626 560.72 549.626 562C549.626 563.04 548.566 563.68 547.086 563.68C545.566 563.68 544.466 562.98 544.386 561.7H542.706C542.806 563.88 544.466 565.24 547.026 565.24ZM563.96 559.66C563.96 556.5 561.8 553.98 558.52 553.98C555.38 553.98 553.02 556.4 553.02 559.6C553.02 562.82 555.38 565.24 558.52 565.24C560.86 565.24 562.76 563.94 563.68 561.72H561.88C561.22 562.88 560.02 563.58 558.52 563.58C556.48 563.58 554.98 562.26 554.72 560.26H563.92C563.94 560.06 563.96 559.86 563.96 559.66ZM558.52 555.58C560.44 555.58 561.9 556.78 562.26 558.7H554.76C555.1 556.82 556.56 555.58 558.52 555.58ZM575.217 550.36V555.58C574.217 554.58 572.817 553.98 571.217 553.98C567.977 553.98 565.637 556.38 565.637 559.62C565.637 562.82 567.977 565.24 571.217 565.24C572.917 565.24 574.377 564.58 575.377 563.48L575.597 565.02H576.917V550.36H575.217ZM571.337 563.6C569.057 563.6 567.377 561.9 567.377 559.62C567.377 557.32 569.057 555.62 571.337 555.62C573.637 555.62 575.317 557.34 575.317 559.62C575.317 561.88 573.637 563.6 571.337 563.6ZM585.519 552.34H587.359V550.4H585.519V552.34ZM585.579 565H587.279V554.2H585.579V565ZM596.096 553.98C594.436 553.98 593.056 554.7 592.236 555.9L591.916 554.2H590.696V565H592.396V559.12C592.396 557.1 593.816 555.52 595.676 555.52C597.536 555.52 598.576 556.76 598.576 558.94V565H600.276V558.54C600.276 555.9 598.676 553.98 596.096 553.98ZM612.91 563.44C611.43 563.44 610.63 562.64 610.63 561.18V555.74H614.03V554.2H610.63V551.92H610.37L607.03 555.44V555.74H608.93V561.24C608.93 563.58 610.37 565 612.69 565H614.09V563.44H612.91ZM621.76 553.98C620.2 553.98 618.9 554.62 618.06 555.68V550.36H616.36V565H618.06V559.12C618.06 557.1 619.48 555.52 621.34 555.52C623.2 555.52 624.24 556.76 624.24 558.94V565H625.94V558.54C625.94 555.74 624.34 553.98 621.76 553.98ZM639.292 559.66C639.292 556.5 637.132 553.98 633.852 553.98C630.712 553.98 628.352 556.4 628.352 559.6C628.352 562.82 630.712 565.24 633.852 565.24C636.192 565.24 638.092 563.94 639.012 561.72H637.212C636.552 562.88 635.352 563.58 633.852 563.58C631.812 563.58 630.312 562.26 630.052 560.26H639.252C639.272 560.06 639.292 559.86 639.292 559.66ZM633.852 555.58C635.772 555.58 637.232 556.78 637.592 558.7H630.092C630.432 556.82 631.892 555.58 633.852 555.58ZM103.62 580.2L103.36 581.88C102.38 580.7 100.9 579.98 99.16 579.98C96.16 579.98 93.86 582.32 93.86 585.32C93.86 588.34 96.16 590.66 99.16 590.66C100.76 590.66 102.14 590.06 103.1 589.06V589.72C103.1 592.12 101.62 593.54 99.46 593.54C97.9 593.54 96.54 592.78 96.06 591.44H94.36C94.94 593.72 96.82 595.1 99.46 595.1C102.76 595.1 104.76 592.98 104.76 589.5V580.22L103.62 580.2ZM99.34 589.04C97.18 589.04 95.58 587.44 95.58 585.32C95.58 583.2 97.18 581.6 99.34 581.6C101.5 581.6 103.08 583.18 103.08 585.32C103.08 587.46 101.52 589.04 99.34 589.04ZM113.117 580.16C111.557 580.16 110.437 580.74 109.657 581.86L109.397 580.2H108.177V591H109.877V585.14C109.877 583.04 110.997 581.76 112.977 581.76H114.077V580.16H113.117ZM124.779 580.2L124.559 581.86C123.559 580.68 122.059 579.98 120.299 579.98C117.099 579.98 114.699 582.38 114.699 585.62C114.699 588.82 117.099 591.24 120.299 591.24C122.059 591.24 123.539 590.54 124.539 589.38L124.719 591H126.119V580.2H124.779ZM120.419 589.6C118.139 589.6 116.439 587.88 116.439 585.6C116.439 583.34 118.139 581.62 120.419 581.62C122.719 581.62 124.379 583.32 124.379 585.6C124.379 587.9 122.719 589.6 120.419 589.6ZM135.284 579.98C133.544 579.98 132.064 580.68 131.064 581.86L130.724 580.2H129.544V594.86H131.244V589.56C132.244 590.62 133.664 591.24 135.284 591.24C138.504 591.24 140.824 588.82 140.824 585.6C140.824 582.38 138.504 579.98 135.284 579.98ZM135.164 589.6C132.864 589.6 131.184 587.88 131.184 585.6C131.184 583.34 132.864 581.62 135.164 581.62C137.444 581.62 139.124 583.32 139.124 585.6C139.124 587.9 137.444 589.6 135.164 589.6ZM148.811 579.98C147.251 579.98 145.951 580.62 145.111 581.68V576.36H143.411V591H145.111V585.12C145.111 583.1 146.531 581.52 148.391 581.52C150.251 581.52 151.291 582.76 151.291 584.94V591H152.991V584.54C152.991 581.74 151.391 579.98 148.811 579.98ZM156.183 578.34H158.023V576.4H156.183V578.34ZM156.243 591H157.943V580.2H156.243V591ZM166.12 591.24C168.68 591.24 170.74 589.7 171.4 587.32H169.68C169.02 588.76 167.7 589.6 166.12 589.6C163.92 589.6 162.24 587.86 162.24 585.6C162.24 583.36 163.9 581.62 166.12 581.62C167.72 581.62 169.06 582.46 169.68 583.86H171.38C170.72 581.5 168.7 579.98 166.12 579.98C162.92 579.98 160.5 582.38 160.5 585.6C160.5 588.82 162.92 591.24 166.12 591.24ZM173.523 593.66C174.763 593.32 175.483 592.46 175.483 590.86V588.9H173.423V591H174.562C174.562 591.88 174.283 592.46 173.523 592.72V593.66ZM189.561 579.98C187.821 579.98 186.341 580.68 185.341 581.86L185.001 580.2H183.821V594.86H185.521V589.56C186.521 590.62 187.941 591.24 189.561 591.24C192.781 591.24 195.101 588.82 195.101 585.6C195.101 582.38 192.781 579.98 189.561 579.98ZM189.441 589.6C187.141 589.6 185.461 587.88 185.461 585.6C185.461 583.34 187.141 581.62 189.441 581.62C191.721 581.62 193.401 583.32 193.401 585.6C193.401 587.9 191.721 589.6 189.441 589.6ZM202.628 580.16C201.068 580.16 199.948 580.74 199.168 581.86L198.908 580.2H197.688V591H199.388V585.14C199.388 583.04 200.508 581.76 202.488 581.76H203.588V580.16H202.628ZM205.343 578.34H207.183V576.4H205.343V578.34ZM205.403 591H207.103V580.2H205.403V591ZM215.92 579.98C214.26 579.98 212.88 580.7 212.06 581.9L211.74 580.2H210.52V591H212.22V585.12C212.22 583.1 213.64 581.52 215.5 581.52C217.36 581.52 218.4 582.76 218.4 584.94V591H220.1V584.54C220.1 581.9 218.5 579.98 215.92 579.98ZM227.735 589.44C226.255 589.44 225.455 588.64 225.455 587.18V581.74H228.855V580.2H225.455V577.92H225.195L221.855 581.44V581.74H223.755V587.24C223.755 589.58 225.195 591 227.515 591H228.915V589.44H227.735ZM230.944 593.66C232.184 593.32 232.904 592.46 232.904 590.86V588.9H230.844V591H231.984C231.984 591.88 231.704 592.46 230.944 592.72V593.66ZM250.463 580.2L250.243 581.86C249.243 580.68 247.743 579.98 245.983 579.98C242.783 579.98 240.383 582.38 240.383 585.62C240.383 588.82 242.783 591.24 245.983 591.24C247.743 591.24 249.223 590.54 250.223 589.38L250.403 591H251.803V580.2H250.463ZM246.103 589.6C243.823 589.6 242.123 587.88 242.123 585.6C242.123 583.34 243.823 581.62 246.103 581.62C248.403 581.62 250.063 583.32 250.063 585.6C250.063 587.9 248.403 589.6 246.103 589.6ZM260.627 579.98C258.967 579.98 257.587 580.7 256.767 581.9L256.447 580.2H255.227V591H256.927V585.12C256.927 583.1 258.347 581.52 260.207 581.52C262.067 581.52 263.107 582.76 263.107 584.94V591H264.807V584.54C264.807 581.9 263.207 579.98 260.627 579.98ZM276.779 576.36V581.58C275.779 580.58 274.379 579.98 272.779 579.98C269.539 579.98 267.199 582.38 267.199 585.62C267.199 588.82 269.539 591.24 272.779 591.24C274.479 591.24 275.939 590.58 276.939 589.48L277.159 591.02H278.479V576.36H276.779ZM272.899 589.6C270.619 589.6 268.939 587.9 268.939 585.62C268.939 583.32 270.619 581.62 272.899 581.62C275.199 581.62 276.879 583.34 276.879 585.62C276.879 587.88 275.199 589.6 272.899 589.6ZM292.881 579.98C291.141 579.98 289.661 580.68 288.661 581.86L288.321 580.2H287.141V594.86H288.841V589.56C289.841 590.62 291.261 591.24 292.881 591.24C296.101 591.24 298.421 588.82 298.421 585.6C298.421 582.38 296.101 579.98 292.881 579.98ZM292.761 589.6C290.461 589.6 288.781 587.88 288.781 585.6C288.781 583.34 290.461 581.62 292.761 581.62C295.041 581.62 296.721 583.32 296.721 585.6C296.721 587.9 295.041 589.6 292.761 589.6ZM305.609 591.24C308.549 591.24 310.409 589.36 310.409 586.46V580.2H308.709V586.18C308.709 588.28 307.549 589.6 305.609 589.6C303.709 589.6 302.529 588.3 302.529 586.18V580.2H300.829V586.46C300.829 589.36 302.709 591.24 305.609 591.24ZM319.345 579.98C317.745 579.98 316.345 580.58 315.345 581.58V576.36H313.645V591H314.965L315.205 589.48C316.205 590.58 317.665 591.24 319.345 591.24C322.605 591.24 324.925 588.82 324.925 585.6C324.925 582.38 322.605 579.98 319.345 579.98ZM319.225 589.6C316.925 589.6 315.245 587.86 315.245 585.6C315.245 583.34 316.925 581.62 319.225 581.62C321.505 581.62 323.185 583.32 323.185 585.6C323.185 587.9 321.505 589.6 319.225 589.6ZM327.493 591H329.193V576.36H327.493V591ZM332.55 578.34H334.39V576.4H332.55V578.34ZM332.61 591H334.31V580.2H332.61V591ZM341.147 591.24C343.707 591.24 345.427 589.94 345.427 587.92C345.427 585.28 343.227 584.92 341.367 584.62C339.927 584.4 338.687 584.18 338.687 583.04C338.687 582.1 339.607 581.5 341.067 581.5C342.587 581.5 343.507 582.14 343.567 583.32H345.167C345.107 581.28 343.547 579.98 341.107 579.98C338.667 579.98 337.027 581.24 337.027 583.1C337.027 585.54 339.107 585.92 340.947 586.24C342.407 586.48 343.747 586.72 343.747 588C343.747 589.04 342.687 589.68 341.207 589.68C339.687 589.68 338.587 588.98 338.507 587.7H336.827C336.927 589.88 338.587 591.24 341.147 591.24ZM353.381 579.98C351.821 579.98 350.521 580.62 349.681 581.68V576.36H347.981V591H349.681V585.12C349.681 583.1 351.101 581.52 352.961 581.52C354.821 581.52 355.861 582.76 355.861 584.94V591H357.561V584.54C357.561 581.74 355.961 579.98 353.381 579.98ZM360.753 578.34H362.593V576.4H360.753V578.34ZM360.813 591H362.513V580.2H360.813V591ZM371.33 579.98C369.67 579.98 368.29 580.7 367.47 581.9L367.15 580.2H365.93V591H367.63V585.12C367.63 583.1 369.05 581.52 370.91 581.52C372.77 581.52 373.81 582.76 373.81 584.94V591H375.51V584.54C375.51 581.9 373.91 579.98 371.33 579.98ZM387.683 580.2L387.423 581.88C386.443 580.7 384.963 579.98 383.223 579.98C380.223 579.98 377.923 582.32 377.923 585.32C377.923 588.34 380.223 590.66 383.223 590.66C384.823 590.66 386.203 590.06 387.162 589.06V589.72C387.162 592.12 385.683 593.54 383.523 593.54C381.963 593.54 380.603 592.78 380.123 591.44H378.423C379.003 593.72 380.883 595.1 383.523 595.1C386.823 595.1 388.822 592.98 388.822 589.5V580.22L387.683 580.2ZM383.403 589.04C381.243 589.04 379.643 587.44 379.643 585.32C379.643 583.2 381.243 581.6 383.403 581.6C385.563 581.6 387.143 583.18 387.143 585.32C387.143 587.46 385.583 589.04 383.403 589.04ZM397.413 578.34H399.253V576.4H397.413V578.34ZM397.473 591H399.173V580.2H397.473V591ZM407.991 579.98C406.331 579.98 404.951 580.7 404.131 581.9L403.811 580.2H402.591V591H404.291V585.12C404.291 583.1 405.711 581.52 407.571 581.52C409.431 581.52 410.471 582.76 410.471 584.94V591H412.171V584.54C412.171 581.9 410.571 579.98 407.991 579.98ZM424.143 576.36V581.58C423.143 580.58 421.743 579.98 420.143 579.98C416.903 579.98 414.563 582.38 414.563 585.62C414.563 588.82 416.903 591.24 420.143 591.24C421.843 591.24 423.303 590.58 424.303 589.48L424.523 591.02H425.843V576.36H424.143ZM420.263 589.6C417.983 589.6 416.303 587.9 416.303 585.62C416.303 583.32 417.983 581.62 420.263 581.62C422.563 581.62 424.243 583.34 424.243 585.62C424.243 587.88 422.563 589.6 420.263 589.6ZM433.87 591.24C436.81 591.24 438.67 589.36 438.67 586.46V580.2H436.97V586.18C436.97 588.28 435.81 589.6 433.87 589.6C431.97 589.6 430.79 588.3 430.79 586.18V580.2H429.09V586.46C429.09 589.36 430.97 591.24 433.87 591.24ZM445.327 591.24C447.887 591.24 449.607 589.94 449.607 587.92C449.607 585.28 447.407 584.92 445.547 584.62C444.107 584.4 442.867 584.18 442.867 583.04C442.867 582.1 443.787 581.5 445.247 581.5C446.767 581.5 447.687 582.14 447.747 583.32H449.347C449.287 581.28 447.727 579.98 445.287 579.98C442.847 579.98 441.207 581.24 441.207 583.1C441.207 585.54 443.287 585.92 445.127 586.24C446.587 586.48 447.927 586.72 447.927 588C447.927 589.04 446.867 589.68 445.387 589.68C443.867 589.68 442.767 588.98 442.687 587.7H441.007C441.107 589.88 442.767 591.24 445.327 591.24ZM456.543 589.44C455.063 589.44 454.263 588.64 454.263 587.18V581.74H457.663V580.2H454.263V577.92H454.003L450.663 581.44V581.74H452.563V587.24C452.563 589.58 454.003 591 456.323 591H457.723V589.44H456.543ZM464.933 580.16C463.373 580.16 462.253 580.74 461.473 581.86L461.213 580.2H459.993V591H461.693V585.14C461.693 583.04 462.813 581.76 464.793 581.76H465.893V580.16H464.933ZM467.648 578.34H469.488V576.4H467.648V578.34ZM467.708 591H469.408V580.2H467.708V591ZM482.925 585.66C482.925 582.5 480.765 579.98 477.485 579.98C474.345 579.98 471.985 582.4 471.985 585.6C471.985 588.82 474.345 591.24 477.485 591.24C479.825 591.24 481.725 589.94 482.645 587.72H480.845C480.185 588.88 478.985 589.58 477.485 589.58C475.445 589.58 473.945 588.26 473.685 586.26H482.885C482.905 586.06 482.925 585.86 482.925 585.66ZM477.485 581.58C479.405 581.58 480.865 582.78 481.225 584.7H473.725C474.065 582.82 475.525 581.58 477.485 581.58ZM488.882 591.24C491.442 591.24 493.162 589.94 493.162 587.92C493.162 585.28 490.962 584.92 489.102 584.62C487.662 584.4 486.422 584.18 486.422 583.04C486.422 582.1 487.342 581.5 488.802 581.5C490.322 581.5 491.242 582.14 491.302 583.32H492.902C492.842 581.28 491.282 579.98 488.842 579.98C486.402 579.98 484.762 581.24 484.762 583.1C484.762 585.54 486.842 585.92 488.682 586.24C490.142 586.48 491.482 586.72 491.482 588C491.482 589.04 490.422 589.68 488.942 589.68C487.422 589.68 486.322 588.98 486.242 587.7H484.562C484.662 589.88 486.322 591.24 488.882 591.24Z" fill="#52575C"/>
</g>
<defs>
<linearGradient id="paint0_linear_12_147" x1="622.78" y1="161.6" x2="1741.63" y2="2004.95" gradientUnits="userSpaceOnUse">
<stop stop-color="#F8C7C8"/>
<stop offset="0.07" stop-color="#FAC1C2"/>
<stop offset="0.28" stop-color="#FEB6B8"/>
<stop offset="0.49" stop-color="#FFB2B4"/>
<stop offset="1" stop-color="#DC939C"/>
</linearGradient>
<clipPath id="clip0_12_147">
<rect width="1500" height="1000" fill="white"/>
</clipPath>
</defs>
</svg>
