<svg width="272" height="48" viewBox="0 0 272 48" fill="none" xmlns="http://www.w3.org/2000/svg">
<g filter="url(#filter0_d_15_35)">
<rect x="229" y="1" width="38" height="38" rx="19" fill="url(#paint0_linear_15_35)"/>
<path d="M248.163 31.3C242.006 31.3 237 26.3028 237 20.1544C237 13.9972 242.006 9 248.163 9C254.32 9 259.326 13.9972 259.326 20.1456C259.326 26.2941 254.32 31.3 248.163 31.3ZM257.573 21.6718C257.251 21.5672 254.625 20.791 251.634 21.2619C252.881 24.6806 253.387 27.4714 253.483 28.047C255.628 26.608 257.155 24.3231 257.573 21.6718ZM251.887 28.9278C251.747 28.0906 251.189 25.1777 249.855 21.7067C249.838 21.7154 249.811 21.7242 249.794 21.7242C244.413 23.5992 242.486 27.3232 242.311 27.672C243.925 28.9278 245.957 29.6779 248.163 29.6779C249.48 29.6866 250.745 29.4162 251.887 28.9278ZM241.082 26.5295C241.3 26.1632 243.916 21.8375 248.835 20.2416C248.957 20.198 249.088 20.1631 249.21 20.1282C248.974 19.5875 248.713 19.0468 248.433 18.5148C243.672 19.9363 239.049 19.8753 238.631 19.8666C238.631 19.9625 238.622 20.0584 238.622 20.1544C238.631 22.605 239.555 24.8376 241.082 26.5295ZM238.831 18.2095C239.259 18.2183 243.183 18.2357 247.649 17.0496C246.07 14.2414 244.361 11.8867 244.116 11.5466C241.439 12.8024 239.451 15.2618 238.831 18.2095ZM245.93 10.9012C246.192 11.2501 247.928 13.6048 249.489 16.474C252.881 15.2007 254.312 13.2821 254.486 13.0379C252.803 11.5466 250.588 10.6396 248.163 10.6396C247.396 10.6396 246.646 10.7355 245.93 10.9012ZM255.541 14.1368C255.341 14.4071 253.745 16.4566 250.221 17.8956C250.439 18.3491 250.657 18.8113 250.858 19.2735C250.928 19.4392 250.997 19.6049 251.067 19.7619C254.242 19.3607 257.39 20.0061 257.704 20.0671C257.678 17.8258 256.876 15.7589 255.541 14.1368Z" fill="white"/>
</g>
<g filter="url(#filter1_d_15_35)">
<rect x="117" y="1" width="38" height="38" rx="19" fill="url(#paint1_linear_15_35)"/>
<path d="M132.667 20C132.667 18.1591 134.159 16.6664 136 16.6664C137.841 16.6664 139.334 18.1591 139.334 20C139.334 21.8409 137.841 23.3336 136 23.3336C134.159 23.3336 132.667 21.8409 132.667 20ZM130.865 20C130.865 22.836 133.164 25.1349 136 25.1349C138.836 25.1349 141.135 22.836 141.135 20C141.135 17.164 138.836 14.8651 136 14.8651C133.164 14.8651 130.865 17.164 130.865 20ZM140.138 14.6615C140.138 14.8989 140.208 15.1309 140.34 15.3283C140.472 15.5257 140.659 15.6796 140.878 15.7705C141.098 15.8614 141.339 15.8852 141.572 15.839C141.805 15.7928 142.018 15.6786 142.186 15.5109C142.354 15.3431 142.469 15.1293 142.515 14.8966C142.561 14.6638 142.538 14.4225 142.447 14.2032C142.356 13.9839 142.203 13.7964 142.005 13.6645C141.808 13.5326 141.576 13.4621 141.339 13.462H141.338C141.02 13.4621 140.715 13.5886 140.49 13.8135C140.265 14.0384 140.138 14.3434 140.138 14.6615ZM131.96 28.1398C130.985 28.0954 130.455 27.933 130.103 27.7958C129.636 27.614 129.303 27.3975 128.953 27.0478C128.602 26.698 128.386 26.3652 128.205 25.8983C128.067 25.5463 127.905 25.0162 127.861 24.0413C127.812 22.9872 127.803 22.6706 127.803 20.0001C127.803 17.3296 127.813 17.0138 127.861 15.9589C127.905 14.9839 128.069 14.4549 128.205 14.1018C128.386 13.635 128.603 13.3018 128.953 12.9516C129.302 12.6014 129.635 12.3846 130.103 12.2036C130.455 12.0663 130.985 11.9039 131.96 11.8596C133.014 11.8111 133.331 11.8014 136 11.8014C138.669 11.8014 138.986 11.8119 140.041 11.8596C141.016 11.904 141.545 12.0676 141.898 12.2036C142.365 12.3846 142.698 12.6018 143.048 12.9516C143.399 13.3014 143.615 13.635 143.796 14.1018C143.934 14.4538 144.096 14.9839 144.14 15.9589C144.189 17.0138 144.199 17.3296 144.199 20.0001C144.199 22.6706 144.189 22.9863 144.14 24.0413C144.096 25.0162 143.933 25.5462 143.796 25.8983C143.615 26.3652 143.398 26.6983 143.048 27.0478C142.699 27.3972 142.365 27.614 141.898 27.7958C141.546 27.933 141.016 28.0954 140.041 28.1398C138.987 28.1882 138.67 28.1979 136 28.1979C133.33 28.1979 133.014 28.1882 131.96 28.1398ZM131.877 10.0606C130.813 10.109 130.085 10.2778 129.45 10.525C128.792 10.7803 128.235 11.1228 127.678 11.6785C127.122 12.2342 126.78 12.792 126.525 13.4499C126.278 14.0856 126.109 14.8126 126.061 15.8772C126.011 16.9434 126 17.2843 126 20C126 22.7157 126.011 23.0566 126.061 24.1228C126.109 25.1874 126.278 25.9144 126.525 26.5501C126.78 27.2076 127.122 27.7661 127.678 28.3215C128.235 28.877 128.792 29.219 129.45 29.475C130.086 29.7222 130.813 29.891 131.877 29.9394C132.944 29.9879 133.284 30 136 30C138.716 30 139.057 29.9887 140.123 29.9394C141.187 29.891 141.914 29.7222 142.55 29.475C143.208 29.219 143.765 28.8772 144.322 28.3215C144.878 27.7658 145.219 27.2076 145.475 26.5501C145.722 25.9144 145.892 25.1874 145.939 24.1228C145.988 23.0558 145.999 22.7157 145.999 20C145.999 17.2843 145.988 16.9434 145.939 15.8772C145.891 14.8126 145.722 14.0852 145.475 13.4499C145.219 12.7924 144.877 12.235 144.322 11.6785C143.766 11.1219 143.208 10.7803 142.551 10.525C141.914 10.2778 141.187 10.1082 140.124 10.0606C139.057 10.0121 138.716 10 136.001 10C133.285 10 132.944 10.0113 131.877 10.0606Z" fill="white"/>
</g>
<g filter="url(#filter2_d_15_35)">
<rect x="61" y="1" width="38" height="38" rx="19" fill="url(#paint2_linear_15_35)"/>
<path d="M88.8068 16.2432C88.8068 16.4348 88.8068 16.6264 88.8068 16.7907C88.8068 22.4573 84.4815 29 76.5974 29C74.161 29 71.9163 28.2882 70 27.0837C70.3285 27.1111 70.6844 27.1385 71.0129 27.1385C73.0113 27.1385 74.8728 26.4541 76.351 25.3043C74.4622 25.277 72.8744 24.0177 72.3543 22.3205C72.628 22.3752 72.8744 22.4026 73.1755 22.4026C73.5588 22.4026 73.942 22.3478 74.2979 22.2383C72.3269 21.8551 70.8486 20.1304 70.8486 18.0499C70.8486 18.0225 70.8486 18.0225 70.8486 17.9952C71.4235 18.3237 72.0805 18.5153 72.7923 18.5427C71.6425 17.7762 70.876 16.4622 70.876 14.9565C70.876 14.1626 71.095 13.4235 71.4509 12.7939C73.5588 15.3945 76.7343 17.0918 80.2931 17.2834C80.2109 16.9823 80.1836 16.6264 80.1836 16.2979C80.1836 13.9163 82.0998 12 84.4815 12C85.7134 12 86.8357 12.5201 87.6023 13.3414C88.5878 13.1498 89.4911 12.7939 90.3398 12.3011C90.0113 13.314 89.3269 14.1353 88.4509 14.6828C89.3269 14.5733 90.1481 14.3543 90.9147 13.9984C90.3671 14.8744 89.6554 15.6409 88.8068 16.2432Z" fill="white"/>
</g>
<g filter="url(#filter3_d_15_35)">
<rect x="5" y="1" width="38" height="38" rx="19" fill="url(#paint3_linear_15_35)"/>
<path d="M25.7416 29.9999V20.8769H28.8038L29.2623 17.3216H25.7416V15.0516C25.7416 14.0222 26.0275 13.3207 27.5037 13.3207L29.3864 13.3198V10.1399C29.0606 10.0968 27.9431 10 26.643 10C23.9285 10 22.0701 11.6568 22.0701 14.6996V17.3217H19V20.877H22.07V30L25.7416 29.9999Z" fill="white"/>
</g>
<g filter="url(#filter4_d_15_35)">
<rect x="173" y="1" width="38" height="38" rx="19" fill="url(#paint4_linear_15_35)"/>
<path d="M187.981 14C188.574 14 189.122 14.0457 189.624 14.1826C190.126 14.2739 190.537 14.4565 190.902 14.6848C191.268 14.9131 191.542 15.2327 191.724 15.6435C191.907 16.0544 191.998 16.5566 191.998 17.1045C191.998 17.7436 191.861 18.2914 191.542 18.7023C191.268 19.1132 190.811 19.4784 190.263 19.7524C191.039 19.9806 191.633 20.3915 191.998 20.9394C192.363 21.4872 192.592 22.172 192.592 22.9481C192.592 23.5873 192.455 24.1351 192.226 24.5917C191.998 25.0482 191.633 25.4591 191.222 25.733C190.811 26.0069 190.309 26.2352 189.761 26.3722C189.213 26.5091 188.665 26.6004 188.118 26.6004H182V14H187.981ZM187.615 19.1132C188.118 19.1132 188.528 18.9763 188.848 18.748C189.168 18.5197 189.305 18.1088 189.305 17.6066C189.305 17.3327 189.259 17.0588 189.168 16.8762C189.076 16.6936 188.939 16.5566 188.757 16.4196C188.574 16.3283 188.392 16.237 188.163 16.1914C187.935 16.1457 187.707 16.1457 187.433 16.1457H184.785V19.1132H187.615ZM187.752 24.5004C188.026 24.5004 188.3 24.4547 188.528 24.409C188.757 24.3634 188.985 24.2721 189.168 24.1351C189.35 23.9982 189.487 23.8612 189.624 23.6329C189.715 23.4047 189.807 23.1307 189.807 22.8112C189.807 22.172 189.624 21.7155 189.259 21.3959C188.894 21.122 188.392 20.985 187.798 20.985H184.785V24.5004H187.752ZM196.564 24.4547C196.929 24.8199 197.477 25.0025 198.207 25.0025C198.709 25.0025 199.166 24.8656 199.531 24.6373C199.896 24.3634 200.125 24.0895 200.216 23.8155H202.453C202.088 24.9112 201.54 25.6874 200.809 26.1895C200.079 26.6461 199.211 26.92 198.161 26.92C197.431 26.92 196.792 26.783 196.198 26.5548C195.605 26.3265 195.148 26.0069 194.737 25.5504C194.327 25.1395 194.007 24.6373 193.824 24.0438C193.596 23.4503 193.505 22.8112 193.505 22.0807C193.505 21.3959 193.596 20.7567 193.824 20.1633C194.053 19.5698 194.372 19.0676 194.783 18.611C195.194 18.2001 195.696 17.8349 196.244 17.6066C196.837 17.3784 197.431 17.2414 198.161 17.2414C198.938 17.2414 199.622 17.3784 200.216 17.698C200.809 18.0175 201.266 18.3828 201.631 18.9306C201.996 19.4328 202.27 20.0263 202.453 20.6654C202.544 21.3046 202.59 21.9437 202.544 22.6742H195.924C195.924 23.4047 196.198 24.0895 196.564 24.4547ZM199.44 19.6611C199.12 19.3415 198.618 19.1589 198.024 19.1589C197.614 19.1589 197.294 19.2502 197.02 19.3871C196.746 19.5241 196.564 19.7067 196.381 19.8893C196.198 20.0719 196.107 20.3002 196.061 20.5285C196.016 20.7567 195.97 20.9394 195.97 21.122H200.079C199.988 20.4372 199.759 19.9806 199.44 19.6611ZM195.422 14.8674H200.535V16.1001H195.422V14.8674Z" fill="white"/>
</g>
<defs>
<filter id="filter0_d_15_35" x="224" y="0" width="48" height="48" filterUnits="userSpaceOnUse" color-interpolation-filters="sRGB">
<feFlood flood-opacity="0" result="BackgroundImageFix"/>
<feColorMatrix in="SourceAlpha" type="matrix" values="0 0 0 0 0 0 0 0 0 0 0 0 0 0 0 0 0 0 127 0" result="hardAlpha"/>
<feOffset dy="4"/>
<feGaussianBlur stdDeviation="2.5"/>
<feColorMatrix type="matrix" values="0 0 0 0 0 0 0 0 0 0 0 0 0 0 0 0 0 0 0.16 0"/>
<feBlend mode="normal" in2="BackgroundImageFix" result="effect1_dropShadow_15_35"/>
<feBlend mode="normal" in="SourceGraphic" in2="effect1_dropShadow_15_35" result="shape"/>
</filter>
<filter id="filter1_d_15_35" x="112" y="0" width="48" height="48" filterUnits="userSpaceOnUse" color-interpolation-filters="sRGB">
<feFlood flood-opacity="0" result="BackgroundImageFix"/>
<feColorMatrix in="SourceAlpha" type="matrix" values="0 0 0 0 0 0 0 0 0 0 0 0 0 0 0 0 0 0 127 0" result="hardAlpha"/>
<feOffset dy="4"/>
<feGaussianBlur stdDeviation="2.5"/>
<feColorMatrix type="matrix" values="0 0 0 0 0 0 0 0 0 0 0 0 0 0 0 0 0 0 0.16 0"/>
<feBlend mode="normal" in2="BackgroundImageFix" result="effect1_dropShadow_15_35"/>
<feBlend mode="normal" in="SourceGraphic" in2="effect1_dropShadow_15_35" result="shape"/>
</filter>
<filter id="filter2_d_15_35" x="56" y="0" width="48" height="48" filterUnits="userSpaceOnUse" color-interpolation-filters="sRGB">
<feFlood flood-opacity="0" result="BackgroundImageFix"/>
<feColorMatrix in="SourceAlpha" type="matrix" values="0 0 0 0 0 0 0 0 0 0 0 0 0 0 0 0 0 0 127 0" result="hardAlpha"/>
<feOffset dy="4"/>
<feGaussianBlur stdDeviation="2.5"/>
<feColorMatrix type="matrix" values="0 0 0 0 0 0 0 0 0 0 0 0 0 0 0 0 0 0 0.16 0"/>
<feBlend mode="normal" in2="BackgroundImageFix" result="effect1_dropShadow_15_35"/>
<feBlend mode="normal" in="SourceGraphic" in2="effect1_dropShadow_15_35" result="shape"/>
</filter>
<filter id="filter3_d_15_35" x="0" y="0" width="48" height="48" filterUnits="userSpaceOnUse" color-interpolation-filters="sRGB">
<feFlood flood-opacity="0" result="BackgroundImageFix"/>
<feColorMatrix in="SourceAlpha" type="matrix" values="0 0 0 0 0 0 0 0 0 0 0 0 0 0 0 0 0 0 127 0" result="hardAlpha"/>
<feOffset dy="4"/>
<feGaussianBlur stdDeviation="2.5"/>
<feColorMatrix type="matrix" values="0 0 0 0 0 0 0 0 0 0 0 0 0 0 0 0 0 0 0.16 0"/>
<feBlend mode="normal" in2="BackgroundImageFix" result="effect1_dropShadow_15_35"/>
<feBlend mode="normal" in="SourceGraphic" in2="effect1_dropShadow_15_35" result="shape"/>
</filter>
<filter id="filter4_d_15_35" x="168" y="0" width="48" height="48" filterUnits="userSpaceOnUse" color-interpolation-filters="sRGB">
<feFlood flood-opacity="0" result="BackgroundImageFix"/>
<feColorMatrix in="SourceAlpha" type="matrix" values="0 0 0 0 0 0 0 0 0 0 0 0 0 0 0 0 0 0 127 0" result="hardAlpha"/>
<feOffset dy="4"/>
<feGaussianBlur stdDeviation="2.5"/>
<feColorMatrix type="matrix" values="0 0 0 0 0 0 0 0 0 0 0 0 0 0 0 0 0 0 0.16 0"/>
<feBlend mode="normal" in2="BackgroundImageFix" result="effect1_dropShadow_15_35"/>
<feBlend mode="normal" in="SourceGraphic" in2="effect1_dropShadow_15_35" result="shape"/>
</filter>
<linearGradient id="paint0_linear_15_35" x1="207.424" y1="-62.2784" x2="79.168" y2="-16.7583" gradientUnits="userSpaceOnUse">
<stop stop-color="#8468F5"/>
<stop offset="1" stop-color="#EC74E7"/>
</linearGradient>
<linearGradient id="paint1_linear_15_35" x1="95.4236" y1="-62.2784" x2="-32.832" y2="-16.7583" gradientUnits="userSpaceOnUse">
<stop stop-color="#8468F5"/>
<stop offset="1" stop-color="#EC74E7"/>
</linearGradient>
<linearGradient id="paint2_linear_15_35" x1="39.4236" y1="-62.2784" x2="-88.832" y2="-16.7583" gradientUnits="userSpaceOnUse">
<stop stop-color="#8468F5"/>
<stop offset="1" stop-color="#EC74E7"/>
</linearGradient>
<linearGradient id="paint3_linear_15_35" x1="-16.5764" y1="-62.2784" x2="-144.832" y2="-16.7583" gradientUnits="userSpaceOnUse">
<stop stop-color="#8468F5"/>
<stop offset="1" stop-color="#EC74E7"/>
</linearGradient>
<linearGradient id="paint4_linear_15_35" x1="151.424" y1="-62.2784" x2="23.168" y2="-16.7583" gradientUnits="userSpaceOnUse">
<stop stop-color="#8468F5"/>
<stop offset="1" stop-color="#EC74E7"/>
</linearGradient>
</defs>
</svg>
